HIERARCHY
ROOT Hips
{
	OFFSET 0.000000 0.000000 0.000000
	CHANNELS 6 Xposition Yposition Zposition Xrotation Yrotation Zrotation
	JOINT LeftUpLeg_virtual
	{
		OFFSET 0.000000 0.000000 0.000000
		CHANNELS 3 Xrotation Yrotation Zrotation
		JOINT LeftUpLeg
		{
			OFFSET 11.394100 -6.187798 -0.413800
			CHANNELS 3 Xrotation Yrotation Zrotation
			JOINT LeftLeg
			{
				OFFSET 0.430247 -32.302673 3.732800
				CHANNELS 3 Xrotation Yrotation Zrotation
				JOINT LeftFoot
				{
					OFFSET -0.430247 -48.264931 -6.423300
					CHANNELS 3 Xrotation Yrotation Zrotation
					JOINT LeftToeBase
					{
						OFFSET 4.230900 -16.068199 23.438400
						CHANNELS 3 Xrotation Yrotation Zrotation
						JOINT LeftToe_End
						{
							OFFSET 4.510700 0.695400 19.974600
							CHANNELS 3 Xrotation Yrotation Zrotation
							End Site
							{
								OFFSET 0 0 0
							}
						}
					}
				}
			}
		}
	}
	JOINT RightUpLeg_virtual
	{
		OFFSET 0.000000 0.000000 0.000000
		CHANNELS 3 Xrotation Yrotation Zrotation
		JOINT RightUpLeg
		{
			OFFSET -11.333700 -6.187798 -0.413800
			CHANNELS 3 Xrotation Yrotation Zrotation
			JOINT RightLeg
			{
				OFFSET -0.430392 -32.302628 3.733000
				CHANNELS 3 Xrotation Yrotation Zrotation
				JOINT RightFoot
				{
					OFFSET 0.430392 -48.264973 -6.423500
					CHANNELS 3 Xrotation Yrotation Zrotation
					JOINT RightToeBase
					{
						OFFSET -4.230900 -16.068199 23.438400
						CHANNELS 3 Xrotation Yrotation Zrotation
						JOINT RightToe_End
						{
							OFFSET -4.510700 0.695400 19.974600
							CHANNELS 3 Xrotation Yrotation Zrotation
							End Site
							{
								OFFSET 0 0 0
							}
						}
					}
				}
			}
		}
	}
	JOINT Spine_virtual
	{
		OFFSET 0.000000 0.000000 0.000000
		CHANNELS 3 Xrotation Yrotation Zrotation
		JOINT Spine
		{
			OFFSET -0.002400 12.777504 0.315300
			CHANNELS 3 Xrotation Yrotation Zrotation
			JOINT Spine1
			{
				OFFSET -0.002067 5.816869 0.032633
				CHANNELS 3 Xrotation Yrotation Zrotation
				JOINT Spine1_split
				{
					OFFSET -0.002067 5.816869 0.032633
					CHANNELS 3 Xrotation Yrotation Zrotation
					JOINT Spine2
					{
						OFFSET -0.002067 5.816869 0.032633
						CHANNELS 3 Xrotation Yrotation Zrotation
						JOINT Neck_virtual
						{
							OFFSET 0.000000 0.000000 0.000000
							CHANNELS 3 Xrotation Yrotation Zrotation
							JOINT Neck
							{
								OFFSET -0.003700 21.199493 -0.826900
								CHANNELS 3 Xrotation Yrotation Zrotation
								JOINT Head
								{
									OFFSET 0.000000 20.442200 4.834800
									CHANNELS 3 Xrotation Yrotation Zrotation
									JOINT HeadTop_End
									{
										OFFSET 0.000000 34.668396 4.968400
										CHANNELS 3 Xrotation Yrotation Zrotation
										End Site
										{
											OFFSET 0 0 0
										}
									}
								}
							}
						}
						JOINT LeftShoulder_virtual
						{
							OFFSET 0.000000 0.000000 0.000000
							CHANNELS 3 Xrotation Yrotation Zrotation
							JOINT LeftShoulder
							{
								OFFSET 3.288150 8.794197 -1.372250
								CHANNELS 3 Xrotation Yrotation Zrotation
								JOINT LeftShoulder_split
								{
									OFFSET 3.288150 8.794197 -1.372250
									CHANNELS 3 Xrotation Yrotation Zrotation
									JOINT LeftArm
									{
										OFFSET 11.953299 -2.279007 -0.146200
										CHANNELS 3 Xrotation Yrotation Zrotation
										JOINT LeftForeArm
										{
											OFFSET 18.448900 0.000000 0.000000
											CHANNELS 3 Xrotation Yrotation Zrotation
											JOINT LeftHand
											{
												OFFSET 29.527798 0.000000 0.000000
												CHANNELS 3 Xrotation Yrotation Zrotation
												End Site
												{
													OFFSET 0 0 0
												}
											}
										}
									}
								}
							}
						}
						JOINT RightShoulder_virtual
						{
							OFFSET 0.000000 0.000000 0.000000
							CHANNELS 3 Xrotation Yrotation Zrotation
							JOINT RightShoulder
							{
								OFFSET -3.249400 8.794197 -1.372250
								CHANNELS 3 Xrotation Yrotation Zrotation
								JOINT RightShoulder_split
								{
									OFFSET -3.249400 8.794197 -1.372250
									CHANNELS 3 Xrotation Yrotation Zrotation
									JOINT RightArm
									{
										OFFSET -11.953299 -2.279007 -0.146200
										CHANNELS 3 Xrotation Yrotation Zrotation
										JOINT RightForeArm
										{
											OFFSET -18.448900 0.000000 0.000000
											CHANNELS 3 Xrotation Yrotation Zrotation
											JOINT RightHand
											{
												OFFSET -29.527802 0.000000 0.000000
												CHANNELS 3 Xrotation Yrotation Zrotation
												End Site
												{
													OFFSET 0 0 0
												}
											}
										}
									}
								}
							}
						}
					}
				}
			}
		}
	}
}
MOTION
Frames: 8
Frame Time: 0.03333333
13.081142 103.328087 -12.398870 0.000000 0.000000 0.000000 -0.743085 -21.077561 0.223845 -13.270087 12.882609 -1.149862 16.293565 4.205771 4.748871 -0.920712 18.869255 -4.197340 -0.045396 -2.056521 0.414167 0.000000 0.000000 0.000000 -0.262847 -19.929556 0.281380 -17.868840 -7.241465 -6.540580 14.104952 6.863414 -2.596262 -6.286319 -8.650789 9.193358 6.044646 3.963426 -11.455957 0.000000 0.000000 0.000000 -2.049358 -16.586508 -0.987515 3.496000 0.635175 -0.329941 -0.119617 -1.662097 0.013336 0.140748 -0.272262 0.036996 0.000000 0.000000 0.000000 1.189938 0.294378 -0.337786 -0.869300 8.715651 7.715823 -0.540803 1.426218 -14.317366 0.000000 0.000000 0.000000 0.038789 -1.103306 -0.486144 2.703207 -3.842054 -8.525370 2.249782 -1.608930 -3.863481 -11.436484 -9.955869 -60.751384 4.878425 -19.304671 -3.480428 0.000000 0.000000 0.000000 0.784263 -0.771745 -0.118721 2.598904 -3.881384 15.848752 -6.857642 -0.545614 -0.145726 6.230008 -0.671299 66.212441 -1.302195 17.346766 4.431074 0.000000 0.000000 0.000000 
13.657708 103.350632 -12.242575 0.000000 0.000000 0.000000 -0.671910 -21.976747 0.164453 -13.043924 13.045022 -1.530264 16.100609 4.240566 4.852673 -0.903091 19.288785 -3.957844 -0.352126 -1.934124 0.446256 0.000000 0.000000 0.000000 -0.195678 -20.751460 0.201246 -17.924132 -6.881398 -6.411265 13.873042 7.201004 -2.646131 -6.537642 -8.789656 8.826292 6.150399 3.899111 -11.346925 0.000000 0.000000 0.000000 -2.012885 -17.279310 -1.125349 3.353692 0.385585 -0.443931 -0.106968 -1.840828 0.047386 0.150267 -0.273996 0.036126 0.000000 0.000000 0.000000 1.204733 0.113447 -0.324457 -0.843145 8.947999 7.884628 -0.522132 2.038849 -14.445106 0.000000 0.000000 0.000000 0.061246 -1.285812 -0.466143 2.787710 -4.252797 -8.702756 2.206705 -1.489097 -3.735997 -12.142226 -11.273769 -61.373300 5.112648 -19.671466 -3.550404 0.000000 0.000000 0.000000 0.780983 -0.940342 -0.101590 2.517060 -4.008034 16.248475 -6.766484 -0.602953 -0.257808 5.719716 -0.449782 66.736358 -0.821614 17.754781 4.112109 0.000000 0.000000 0.000000 
14.198534 103.378670 -12.091307 0.000000 0.000000 0.000000 -0.563679 -22.815531 0.087265 -12.890401 13.207878 -1.839317 15.936250 4.277737 4.967225 -0.837292 19.675888 -3.700087 -0.667081 -1.826546 0.474512 0.000000 0.000000 0.000000 -0.098493 -21.517637 0.104212 -17.925825 -6.572474 -6.247647 13.557528 7.439556 -2.674406 -6.759528 -8.949687 8.379352 6.272762 3.829763 -11.187057 0.000000 0.000000 0.000000 -1.936132 -17.941389 -1.273507 3.209166 0.124277 -0.594958 -0.067154 -2.022309 0.089450 0.160944 -0.263634 0.031798 0.000000 0.000000 0.000000 1.251814 -0.069344 -0.300127 -0.794601 9.176538 8.039684 -0.602501 2.519747 -14.485151 0.000000 0.000000 0.000000 0.120677 -1.469071 -0.433470 2.863056 -4.717986 -8.858905 2.168790 -1.365336 -3.650928 -12.695956 -12.857897 -61.959665 5.356083 -20.287786 -3.558907 0.000000 0.000000 0.000000 0.819238 -1.110114 -0.072771 2.417199 -4.141646 16.707874 -6.696142 -0.663650 -0.389110 5.090537 -0.199805 67.218118 -0.233377 18.073154 3.770799 0.000000 0.000000 0.000000 
14.695094 103.419006 -11.952993 0.000000 0.000000 0.000000 -0.399233 -23.554146 0.003524 -12.821099 13.371458 -2.079043 15.772182 4.311293 5.088369 -0.751646 20.013182 -3.424439 -0.949016 -1.733911 0.504127 0.000000 0.000000 0.000000 0.041979 -22.218725 0.003950 -17.911666 -6.310075 -6.091050 13.164370 7.598674 -2.673634 -6.814662 -9.100784 7.973905 6.284127 3.781351 -10.985778 0.000000 0.000000 0.000000 -1.796705 -18.548781 -1.416126 3.049361 -0.148819 -0.799253 -0.007259 -2.206864 0.131356 0.166849 -0.247676 0.029620 0.000000 0.000000 0.000000 1.321976 -0.254093 -0.274346 -0.721789 9.403851 8.190035 -0.743889 2.896012 -14.427989 0.000000 0.000000 0.000000 0.209058 -1.653198 -0.394443 2.929644 -5.220809 -8.965560 2.130831 -1.228162 -3.582926 -13.128389 -14.667409 -62.513142 5.615031 -21.178212 -3.498426 0.000000 0.000000 0.000000 0.892504 -1.281949 -0.043287 2.301362 -4.299755 17.219067 -6.643452 -0.743875 -0.548795 4.385366 0.060301 67.639158 0.457928 18.326330 3.403003 0.000000 0.000000 0.000000 
15.154241 103.473167 -11.830339 0.000000 0.000000 0.000000 -0.175833 -24.158116 -0.081524 -12.864888 13.532239 -2.245543 15.589097 4.317684 5.206984 -0.643044 20.267596 -3.169798 -1.217846 -1.654495 0.555201 0.000000 0.000000 0.000000 0.246096 -22.844007 -0.089555 -17.901371 -6.085865 -5.964605 12.684023 7.709266 -2.639411 -6.676863 -9.212149 7.703465 6.173874 3.766637 -10.744887 0.000000 0.000000 0.000000 -1.576147 -19.083892 -1.544803 2.863198 -0.431881 -1.069932 0.064870 -2.394426 0.165217 0.171455 -0.229310 0.029482 0.000000 0.000000 0.000000 1.406110 -0.441168 -0.254612 -0.645231 9.627504 8.348321 -0.909206 3.199188 -14.260592 0.000000 0.000000 0.000000 0.318184 -1.838707 -0.357692 2.987351 -5.749421 -8.999602 2.088482 -1.088959 -3.559447 -13.472626 -16.637572 -63.038657 5.886150 -22.251991 -3.380652 0.000000 0.000000 0.000000 0.994361 -1.457819 -0.023138 2.173423 -4.490793 17.771621 -6.595881 -0.859341 -0.731219 3.664624 0.301259 68.004348 1.236301 18.586118 3.011375 0.000000 0.000000 0.000000 
15.573025 103.534981 -11.722288 0.000000 0.000000 0.000000 0.112264 -24.631418 -0.163090 -13.024063 13.673157 -2.342580 15.392453 4.289372 5.312842 -0.491112 20.432501 -2.958432 -1.500286 -1.589588 0.641871 0.000000 0.000000 0.000000 0.519298 -23.370667 -0.176033 -17.875729 -5.897419 -5.868275 12.115244 7.776555 -2.574567 -6.449408 -9.278190 7.546456 6.011788 3.787552 -10.461945 0.000000 0.000000 0.000000 -1.270607 -19.534783 -1.652421 2.653482 -0.715916 -1.412124 0.142582 -2.583163 0.186553 0.173385 -0.209198 0.030701 0.000000 0.000000 0.000000 1.502294 -0.626705 -0.246816 -0.574691 9.848504 8.525861 -1.074703 3.455002 -13.969099 0.000000 0.000000 0.000000 0.445735 -2.023572 -0.329862 3.037356 -6.294250 -8.965081 2.041326 -0.929016 -3.547479 -13.725688 -18.699702 -63.528594 6.149073 -23.372878 -3.222275 0.000000 0.000000 0.000000 1.122163 -1.635708 -0.018063 2.038873 -4.710404 18.338993 -6.544887 -0.997705 -0.919592 2.997622 0.500573 68.322130 2.073959 18.927211 2.604575 0.000000 0.000000 0.000000 
15.956159 103.599060 -11.637754 0.000000 0.000000 0.000000 0.463030 -24.995410 -0.242400 -13.310771 13.784117 -2.373404 15.224599 4.249143 5.395653 -0.297003 20.527908 -2.777656 -1.772792 -1.534369 0.731410 0.000000 0.000000 0.000000 0.858549 -23.792587 -0.257454 -17.807311 -5.760929 -5.785940 11.517143 7.762833 -2.487957 -6.271964 -9.340575 7.393963 5.912288 3.838654 -10.123036 0.000000 0.000000 0.000000 -0.894232 -19.898213 -1.741353 2.432560 -0.983563 -1.824097 0.226321 -2.765171 0.195147 0.173001 -0.202050 0.032023 0.000000 0.000000 0.000000 1.611082 -0.804686 -0.251237 -0.532728 10.059836 8.727841 -1.246972 3.698939 -13.541787 0.000000 0.000000 0.000000 0.588760 -2.203036 -0.312659 3.078628 -6.850427 -8.862537 1.981950 -0.792050 -3.564036 -13.879465 -20.728214 -63.949839 6.368486 -24.410090 -3.046588 0.000000 0.000000 0.000000 1.267957 -1.810193 -0.026216 1.899795 -4.936558 18.890811 -6.483998 -1.136441 -1.100574 2.440341 0.652372 68.603240 2.933203 19.373403 2.196852 0.000000 0.000000 0.000000 
16.299759 103.658066 -11.562162 0.000000 0.000000 0.000000 0.864493 -25.283125 -0.323147 -13.708553 13.865579 -2.340286 15.103264 4.223278 5.458499 -0.096215 20.578385 -2.603688 -2.033939 -1.482518 0.807211 0.000000 0.000000 0.000000 1.242133 -24.114799 -0.342916 -17.695200 -5.687831 -5.700543 10.934504 7.653288 -2.383457 -6.211251 -9.419110 7.197365 5.903354 3.918931 -9.739763 0.000000 0.000000 0.000000 -0.471021 -20.180115 -1.821670 2.225250 -1.214740 -2.288610 0.317157 -2.931347 0.193913 0.174415 -0.195958 0.028423 0.000000 0.000000 0.000000 1.731261 -0.967383 -0.265120 -0.533464 10.258507 8.954522 -1.435165 3.954074 -12.975430 0.000000 0.000000 0.000000 0.750938 -2.370449 -0.305289 3.114483 -7.407403 -8.713943 1.904540 -0.671176 -3.604985 -13.936811 -22.606299 -64.265769 6.520115 -25.316911 -2.871456 0.000000 0.000000 0.000000 1.432146 -1.971945 -0.043014 1.758450 -5.139547 19.394023 -6.399385 -1.269252 -1.245810 2.042453 0.760934 68.848628 3.775257 19.889321 1.805303 0.000000 0.000000 0.000000 
